<?xml version="1.0" standalone="no"?>
<!DOCTYPE svg PUBLIC "-//W3C//DTD SVG 20010904//EN"
 "http://www.w3.org/TR/2001/REC-SVG-20010904/DTD/svg10.dtd">
<svg version="1.0" xmlns="http://www.w3.org/2000/svg"
 width="128.000000pt" height="128.000000pt" viewBox="0 0 128.000000 128.000000"
 preserveAspectRatio="xMidYMid meet">
<metadata>
Created by potrace 1.11, written by Peter Selinger 2001-2013
</metadata>
<g transform="translate(0.000000,128.000000) scale(0.100000,-0.100000)"
fill="#000000" stroke="none">
<path d="M500 1255 c-232 -52 -427 -251 -476 -485 -20 -94 -14 -229 15 -320
60 -190 222 -352 416 -413 55 -17 94 -22 185 -22 134 0 215 21 319 82 129 76
238 213 284 358 31 99 31 271 0 370 -61 193 -223 356 -413 416 -86 27 -242 34
-330 14z m390 -441 c0 -420 -4 -453 -54 -552 -34 -67 -110 -135 -181 -161 -74
-28 -192 -36 -265 -19 l-55 13 -3 117 -3 117 43 -19 c54 -24 132 -25 178 -2
21 10 45 34 60 62 l25 45 3 398 3 398 125 -3 125 -3 -1 -391z"/>
</g>
</svg>
